<mxfile host="65bd71144e">
    <diagram id="OvXxKjPO3RPC6y7bqK-N" name="Page-1">
        <mxGraphModel dx="167" dy="423" grid="1" gridSize="10" guides="1" tooltips="1" connect="1" arrows="1" fold="1" page="1" pageScale="1" pageWidth="827" pageHeight="1169" math="0" shadow="0">
            <root>
                <mxCell id="0"/>
                <mxCell id="1" parent="0"/>
                <mxCell id="r3o91FJ2YCAC541-YusK-1" value="&lt;b&gt;&lt;font style=&quot;font-size: 24px;&quot;&gt;Employees&lt;/font&gt;&lt;/b&gt;" style="rounded=0;whiteSpace=wrap;html=1;" parent="1" vertex="1">
                    <mxGeometry x="200" y="200" width="200" height="80" as="geometry"/>
                </mxCell>
                <mxCell id="r3o91FJ2YCAC541-YusK-2" value="&lt;b&gt;&lt;u&gt;&lt;font style=&quot;font-size: 18px;&quot;&gt;ssn&lt;/font&gt;&lt;/u&gt;&lt;/b&gt;" style="ellipse;whiteSpace=wrap;html=1;" parent="1" vertex="1">
                    <mxGeometry y="80" width="120" height="80" as="geometry"/>
                </mxCell>
                <mxCell id="r3o91FJ2YCAC541-YusK-3" value="&lt;font style=&quot;font-size: 18px;&quot;&gt;&lt;b style=&quot;&quot;&gt;ename&lt;/b&gt;&lt;/font&gt;" style="ellipse;whiteSpace=wrap;html=1;" parent="1" vertex="1">
                    <mxGeometry x="240" y="40" width="120" height="80" as="geometry"/>
                </mxCell>
                <mxCell id="r3o91FJ2YCAC541-YusK-4" value="&lt;b&gt;&lt;font style=&quot;font-size: 18px;&quot;&gt;lot&lt;/font&gt;&lt;/b&gt;" style="ellipse;whiteSpace=wrap;html=1;" parent="1" vertex="1">
                    <mxGeometry x="480" y="80" width="120" height="80" as="geometry"/>
                </mxCell>
                <mxCell id="r3o91FJ2YCAC541-YusK-6" value="" style="endArrow=none;html=1;rounded=0;entryX=0;entryY=0;entryDx=0;entryDy=0;exitX=1;exitY=1;exitDx=0;exitDy=0;" parent="1" source="r3o91FJ2YCAC541-YusK-2" target="r3o91FJ2YCAC541-YusK-1" edge="1">
                    <mxGeometry width="50" height="50" relative="1" as="geometry">
                        <mxPoint x="270" y="460" as="sourcePoint"/>
                        <mxPoint x="320" y="410" as="targetPoint"/>
                    </mxGeometry>
                </mxCell>
                <mxCell id="r3o91FJ2YCAC541-YusK-7" value="" style="endArrow=none;html=1;rounded=0;entryX=1;entryY=0;entryDx=0;entryDy=0;exitX=0;exitY=1;exitDx=0;exitDy=0;" parent="1" source="r3o91FJ2YCAC541-YusK-4" target="r3o91FJ2YCAC541-YusK-1" edge="1">
                    <mxGeometry width="50" height="50" relative="1" as="geometry">
                        <mxPoint x="540" y="230" as="sourcePoint"/>
                        <mxPoint x="637.5735931288073" y="281.7157287525382" as="targetPoint"/>
                    </mxGeometry>
                </mxCell>
                <mxCell id="r3o91FJ2YCAC541-YusK-8" value="" style="endArrow=none;html=1;rounded=0;entryX=0.5;entryY=0;entryDx=0;entryDy=0;exitX=0.5;exitY=1;exitDx=0;exitDy=0;" parent="1" source="r3o91FJ2YCAC541-YusK-3" target="r3o91FJ2YCAC541-YusK-1" edge="1">
                    <mxGeometry width="50" height="50" relative="1" as="geometry">
                        <mxPoint x="310" y="170" as="sourcePoint"/>
                        <mxPoint x="407.57359312880726" y="221.7157287525382" as="targetPoint"/>
                    </mxGeometry>
                </mxCell>
                <mxCell id="3" value="&lt;div&gt;&lt;b&gt;Reports_To&lt;/b&gt;&lt;/div&gt;" style="rhombus;whiteSpace=wrap;html=1;align=center;" vertex="1" parent="1">
                    <mxGeometry x="260" y="320" width="80" height="80" as="geometry"/>
                </mxCell>
                <mxCell id="4" value="" style="endArrow=none;html=1;rounded=0;entryX=0.5;entryY=0;entryDx=0;entryDy=0;" edge="1" parent="1">
                    <mxGeometry width="50" height="50" relative="1" as="geometry">
                        <mxPoint x="270" y="280" as="sourcePoint"/>
                        <mxPoint x="270" y="350" as="targetPoint"/>
                    </mxGeometry>
                </mxCell>
                <mxCell id="6" value="" style="endArrow=none;html=1;rounded=0;entryX=0.5;entryY=0;entryDx=0;entryDy=0;" edge="1" parent="1">
                    <mxGeometry width="50" height="50" relative="1" as="geometry">
                        <mxPoint x="330" y="280" as="sourcePoint"/>
                        <mxPoint x="330" y="349.9999999999999" as="targetPoint"/>
                    </mxGeometry>
                </mxCell>
                <mxCell id="7" value="Subordinate" style="text;html=1;strokeColor=none;fillColor=none;align=center;verticalAlign=middle;whiteSpace=wrap;rounded=0;" vertex="1" parent="1">
                    <mxGeometry x="200" y="300" width="60" height="30" as="geometry"/>
                </mxCell>
                <mxCell id="8" value="Supervisor" style="text;html=1;strokeColor=none;fillColor=none;align=center;verticalAlign=middle;whiteSpace=wrap;rounded=0;" vertex="1" parent="1">
                    <mxGeometry x="340" y="300" width="60" height="30" as="geometry"/>
                </mxCell>
            </root>
        </mxGraphModel>
    </diagram>
</mxfile>